<?xml version="1.0" encoding="utf-8"?>
<!-- Generator: Adobe Illustrator 22.0.1, SVG Export Plug-In . SVG Version: 6.00 Build 0)  -->
<svg version="1.1" id="Слой_2" xmlns="http://www.w3.org/2000/svg" xmlns:xlink="http://www.w3.org/1999/xlink" x="0px" y="0px"
	 viewBox="0 0 640 640" style="enable-background:new 0 0 640 640;" xml:space="preserve">
<style type="text/css">
	.st0{fill:none;stroke:#FFFFFF;stroke-width:12;stroke-linecap:round;stroke-linejoin:round;stroke-miterlimit:10;}
</style>
<line class="st0" x1="246.4793396" y1="585.5206909" x2="374.4793396" y2="585.5206909"/>
<g>
	<circle class="st0" cx="358.0826416" cy="167.6694183" r="17.9834709"/>
	<circle class="st0" cx="377.1239624" cy="72.4628067" r="17.9834709"/>
	<circle class="st0" cx="396.1652832" cy="243.8347168" r="17.9834709"/>
	<circle class="st0" cx="91.5041351" cy="300.9586792" r="17.9834709"/>
	<circle class="st0" cx="131.7024841" cy="243.8347168" r="17.9834709"/>
	<circle class="st0" cx="148.6280975" cy="186.7107391" r="17.9834709"/>
	<circle class="st0" cx="167.6694183" cy="129.5867767" r="17.9834709"/>
	<circle class="st0" cx="110.5454559" cy="472.3305664" r="17.9834709"/>
	<circle class="st0" cx="91.5041351" cy="377.1239624" r="17.9834709"/>
	<circle class="st0" cx="396.1652832" cy="510.413208" r="17.9834709"/>
	<circle class="st0" cx="529.4545288" cy="300.9586792" r="17.9834709"/>
	<circle class="st0" cx="453.2892456" cy="129.5867767" r="17.9834709"/>
	<circle class="st0" cx="415.206604" cy="339.0413208" r="17.9834709"/>
	<circle class="st0" cx="205.7520599" cy="243.8347168" r="17.9834709"/>
	<circle class="st0" cx="186.7107391" cy="339.0413208" r="17.9834709"/>
	<circle class="st0" cx="243.8347168" cy="148.6280975" r="17.9834709"/>
	<circle class="st0" cx="186.7107391" cy="396.1652832" r="17.9834709"/>
	<circle class="st0" cx="281.9173584" cy="243.8347168" r="17.9834709"/>
	<circle class="st0" cx="262.8760376" cy="91.5041351" r="17.9834709"/>
	<circle class="st0" cx="262.8760376" cy="320" r="17.9834709"/>
	<circle class="st0" cx="262.8760376" cy="377.1239624" r="17.9834709"/>
	<circle class="st0" cx="186.7107391" cy="510.413208" r="17.9834709"/>
	<circle class="st0" cx="358.0826416" cy="339.0413208" r="17.9834709"/>
	<circle class="st0" cx="377.1239624" cy="415.206604" r="17.9834709"/>
	<circle class="st0" cx="472.3305664" cy="415.206604" r="17.9834709"/>
	<circle class="st0" cx="529.4545288" cy="472.3305664" r="17.9834709"/>
	<line class="st0" x1="318.9421387" y1="585.5206909" x2="318.9421387" y2="170.8429718"/>
	<line class="st0" x1="511.4710693" y1="471.2727356" x2="318.9421387" y2="471.2727356"/>
	<line class="st0" x1="363.3718872" y1="426.8429871" x2="318.9421387" y2="471.2727356"/>
	<line class="st0" x1="458.5785217" y1="426.8429871" x2="414.1487732" y2="471.2727356"/>
	<path class="st0" d="M378.1818237,509.3553772h-59.2396851H378.1818237z"/>
	<line class="st0" x1="344.3305664" y1="350.6776733" x2="318.9421387" y2="376.0661011"/>
	<line class="st0" x1="401.4545593" y1="350.6776733" x2="376.0661011" y2="376.0661011"/>
	<line class="st0" x1="318.9421387" y1="376.0661011" x2="376.0661011" y2="376.0661011"/>
	<line class="st0" x1="515.7024536" y1="312.5950317" x2="452.2314148" y2="376.0661011"/>
	<line class="st0" x1="376.0661011" y1="376.0661011" x2="452.2314148" y2="376.0661011"/>
	<line class="st0" x1="382.413208" y1="255.4710693" x2="357.0247803" y2="280.8594971"/>
	<line class="st0" x1="318.9421387" y1="280.8594971" x2="357.0247803" y2="280.8594971"/>
	<line class="st0" x1="363.3718872" y1="84.0991745" x2="318.9421387" y2="128.5289307"/>
	<line class="st0" x1="318.9421387" y1="185.6528931" x2="318.9421387" y2="128.5289307"/>
	<line class="st0" x1="276.6281128" y1="105.2561951" x2="318.9421387" y2="147.5702515"/>
	<line class="st0" x1="344.3305664" y1="179.3057861" x2="318.9421387" y2="204.6942139"/>
	<line class="st0" x1="439.5372009" y1="141.2231445" x2="318.9421387" y2="261.8181763"/>
	<line class="st0" x1="128.5289307" y1="473.3884277" x2="318.9421387" y2="473.3884277"/>
	<line class="st0" x1="105.2561951" y1="390.8760376" x2="187.7686005" y2="473.3884277"/>
	<line class="st0" x1="200.4628143" y1="409.9173584" x2="263.9338989" y2="473.3884277"/>
	<line class="st0" x1="276.6281128" y1="390.8760376" x2="318.9421387" y2="433.190094"/>
	<line class="st0" x1="200.4628143" y1="498.7768555" x2="225.8512421" y2="473.3884277"/>
	<line class="st0" x1="276.6281128" y1="333.7520752" x2="318.9421387" y2="376.0661011"/>
	<line class="st0" x1="295.6694336" y1="257.586792" x2="318.9421387" y2="280.8594971"/>
	<line class="st0" x1="219.5041351" y1="257.586792" x2="242.7768555" y2="280.8594971"/>
	<line class="st0" x1="242.7768555" y1="280.8594971" x2="318.9421387" y2="280.8594971"/>
	<line class="st0" x1="143.3388367" y1="257.586792" x2="166.6115723" y2="280.8594971"/>
	<line class="st0" x1="242.7768555" y1="280.8594971" x2="166.6115723" y2="280.8594971"/>
	<line class="st0" x1="166.6115723" y1="185.6528931" x2="318.9421387" y2="185.6528931"/>
	<line class="st0" x1="257.586792" y1="162.3801727" x2="280.8594971" y2="185.6528931"/>
	<line class="st0" x1="181.4214935" y1="143.3388367" x2="223.7355347" y2="185.6528931"/>
	<line class="st0" x1="172.9586792" y1="382.413208" x2="105.2561951" y2="314.7107544"/>
	<line class="st0" x1="198.3471069" y1="325.2892456" x2="242.7768555" y2="280.8594971"/>
</g>
</svg>
